<svg version="1.0" xmlns="http://www.w3.org/2000/svg" width="3890.667" height="3890.667" viewBox="0 0 2918 2918"><path d="M1127.3 144c-1.2.5-2.4 1.8-2.8 3-.8 2.4 1.6 6.6 3.7 6.7 2.1.1 12.2 1.4 13.8 1.8.8.3 3.5.7 6 1 2.5.3 5.2.7 6 1 .8.2 3.8.6 6.5 1 2.8.3 5.7.8 6.5 1 .8.2 2.9.7 4.5.9 13 2.2 48.9 9.9 57 12.2.6.2 1.9.5 3 .7 5.9 1.4 8.7 2.2 16.4 4.3 4.6 1.3 9.4 2.6 10.7 2.8 1.3.3 2.7.7 3.2 1 .5.3 1.9.7 3.3 1 3.9.7 45.5 13.9 49.4 15.6 1.1.5 4.9 1.9 8.4 3 6 2 30.3 11.1 34.6 13 1.1.5 10.1 4.3 20 8.5 20.1 8.5 63.1 29.3 80 38.7 6.1 3.4 13 7.2 15.5 8.6 2.5 1.4 5 2.8 5.5 3.2.6.4 3 1.9 5.5 3.2 42.2 23.5 102.2 66.7 147 105.7 20.8 18.3 51.8 48.2 69 66.7 3.6 3.8 8.8 9.4 11.6 12.4 12.7 13.8 36.1 41.9 50.2 60.5 5 6.6 9.5 12.4 10 13 2.1 2.5 20.7 29.2 27.9 40 38.5 57.6 73.5 125.8 98 191 8.7 23.1 20.3 58.3 24.7 74.5.8 3 2.7 9.8 4.1 15 1.5 5.2 2.8 10.2 3 11 .2.8 1 4.2 1.8 7.5.9 3.3 1.8 7.1 2 8.5.3 1.4 1.5 6.5 2.6 11.5 2.8 11.8 3 12.5 3.7 17.1.3 2.1.8 4.2 1 4.5.2.3.6 2.1.9 4 .3 1.9 1 5.9 1.6 8.9 2.3 12.9 3.8 21.8 4.4 26.5.4 2.7.8 5.7 1 6.5.3.8.7 3.5 1 6 .3 2.5.8 5.6 1 7 .2 1.4.7 5 1 8 .3 3 .8 6.6 1 8 .2 1.4.6 5.4 1 9 .4 3.6.8 7.6 1 9 .2 1.4.7 6.8 1 12 .4 5.2.9 10.6 1 12 .3 2.4 1.5 22 2 34 .5 10.8.5 62.7 0 75-1 25.5-3.5 57.4-6.1 77.5-.2 2.2-.7 5.6-.9 7.5-.3 1.9-.7 5.5-1 8-.3 2.5-1 7.2-1.5 10.5s-1.2 7.8-1.6 10c-2.9 19.3-9.5 53.6-12.6 65-.5 2.2-1.2 4.9-1.4 6-.9 4.5-1.3 6.3-2.9 12.5-.9 3.6-1.9 7.6-2.1 8.9-.3 1.3-.9 3.2-1.5 4.3-.5 1-.7 1.8-.5 1.8.3 0-.1 1.8-.9 4s-1.4 4.1-1.4 4.3c.1.3-2.9 11.3-4.8 17.2-.8 2.7-1.7 5.7-1.8 6.5-2.4 11.1-26.8 77.8-35.1 95.7-1.3 2.8-2.4 5.4-2.4 5.7 0 1.8-23.7 51-32.8 68.1-18.2 34.2-43.5 75.2-64.1 104-6.2 8.6-22.2 30.3-24.8 33.5-.6.8-4 5.1-7.5 9.5s-7.3 9.1-8.5 10.5c-1.1 1.4-6.1 7.2-10.9 13-24.7 29.4-54 59.7-88 91-12.6 11.6-42.5 36.8-52.9 44.5-2.2 1.6-4.2 3.2-4.5 3.6-.9 1-16.3 12.4-29.4 21.8-56.8 40.8-129.2 81-190 105.5-4.7 1.9-10 4.1-11.8 4.9-13.6 6-73 26.7-83.8 29.2-.8.2-7.3 2-14.5 4-13.3 3.8-54.7 13.9-60.7 14.9-1.8.3-6.6 1.2-10.5 2-4 .9-8.5 1.8-10 2-19 3.3-32.8 5.6-37.2 6.1-3 .4-6.2.8-7.1 1-.9.2-4.1.6-7.1 1-3 .3-6.5.8-7.9 1-1.4.2-5.4.7-9 1-3.6.3-7.6.8-9 1-1.4.2-5.6.6-9.5 1-3.8.3-9.5.7-12.5 1-26.3 2.2-42.5 2.8-82 3-19.5.2-35.7.3-36 .4-.6.1-.5 68.6.4 439.6.3 116 .5 224.5.6 241.1v30.1l446.7-.1 446.6-.1v-17c-.1-9.4-.4-144.8-.8-301s-.7-308.4-.8-338.3l-.2-54.2h12c18.6-.1 73.4-1 79.5-1.4 3-.2 10.2-.7 16-1 5.8-.3 12.3-.8 14.5-1.1 2.2-.3 6.9-.7 10.5-1 3.6-.3 7.6-.7 9-.9 1.4-.2 5.5-.7 9.2-1 3.7-.4 7.7-.9 9-1.1 1.3-.2 4.8-.6 7.9-1 3.1-.3 6.5-.7 7.5-.9 1.1-.2 4.1-.7 6.7-1 2.7-.4 5.6-.9 6.5-1.1 1-.1 4-.6 6.7-.9 4.1-.5 8.6-1.3 12.5-2.1.3-.1 2.5-.5 5-.9 2.5-.5 5.4-1 6.5-1.2 3.7-.7 17-3.3 19.5-3.9 1.4-.2 3.9-.7 5.5-1.1 5.2-1 35.8-8.3 39.9-9.5 2.2-.6 4.6-1.2 5.5-1.4 4.3-.9 35.4-10.1 48.8-14.5 28.8-9.4 67.1-23.9 86.1-32.6 4.1-1.9 7.5-3.4 7.7-3.4.6 0 19.3-8.9 34-16 31.4-15.4 59.1-31.1 91-51.3 10.5-6.7 19.5-12.5 20-12.9.6-.5 7.3-5.2 15-10.6 7.7-5.4 19.2-13.6 25.5-18.3 9.7-7.3 15.1-11.5 32-25.2 11.9-9.6 17.7-14.4 18.5-15.3.6-.6 7.3-6.7 15-13.5s23.9-22.2 36-34.4c23.3-23.3 31.9-32.4 48.5-51.5 3-3.5 6-6.8 6.6-7.4.5-.6 7.7-9.4 15.8-19.6 8.1-10.2 15.5-19.4 16.4-20.5.9-1.1 7.4-10.1 14.6-20 43.5-60.6 77.7-121.5 106.3-189.5 7.2-17 8.1-19.2 17.7-45.5 14.4-38.9 30.6-96.3 37.2-131 .2-1.1.6-3.1.9-4.5.3-1.4.7-3.6 1-5 1.8-9.5 2.8-14.8 3-16.7.2-1.2.6-3.4.9-5 .6-3.1.9-4.8 3-18.3.8-5.2 1.7-11.8 2.1-14.5.3-2.8.8-5.9 1-7 .2-1.1.7-4.5 1-7.5.3-3 .7-7.1 1-9 1.4-12.4 2.2-21.5 3.1-33.5.3-5 .8-10.6.9-12.5 2.3-29.8 2.3-92.6 0-123.5-1.7-23.9-2.2-30.1-3-36.5-.2-1.9-.9-8.1-1.5-13.7s-1.2-11-1.4-12c-.2-1-.7-4.1-1-6.8-.4-2.8-1.1-7.7-1.6-11s-1.2-7.8-1.5-10c-.3-2.3-.7-5-.9-6.2-.3-1.1-.7-3.8-1-5.9-1.2-7.7-5.8-31.1-7.6-38.9-1-4.5-2.1-9.2-2.3-10.5-.3-1.4-1.3-5.7-2.2-9.5-.9-3.9-1.8-7.9-2.1-9-3.1-15.4-24-83.9-30.1-98.5-.3-.8-.7-1.7-.7-2-.3-1.2-4.4-11.6-10.3-26.2-18.2-45.5-43.1-95.5-67.7-136.1-3.9-6.5-8-13.2-9-15-11.7-19.4-50.6-74.4-61.1-86.4-.5-.6-2.3-2.9-4-5-21.4-27-42.2-50.1-72.5-80.3-21.9-21.8-25.1-24.9-43-40.5-6.3-5.5-12.4-10.8-13.5-11.8-1.1-1-8.5-7.1-16.5-13.4-8-6.4-16.5-13.3-19-15.3-8.8-7.1-34.8-25.7-52.8-37.7-89.5-59.8-189.3-104.4-293.2-131-7.4-1.9-14.6-3.6-16-3.9-1.4-.3-3.3-.7-4.2-1-2.3-.7-29.9-6.6-37.3-8-5.8-1.1-30-5.3-34-5.9-15-2.2-23.3-3.2-34-4-4.4-.3-10.9-.8-14.5-1-7.7-.6-20.7-1.3-34.5-2-5.5-.2-12.7-.7-16-1-3.3-.3-12.1-.8-19.5-1.1-7.4-.3-17.1-.8-21.5-1.1-14-.9-769.9-1.1-772.2-.3z"/><path d="M957.9 877.3c-.1.1-.2 102.3-.3 227.1l-.1 226.9 15.5-.6c8.5-.4 16.6-.9 18-1.1 1.4-.3 4.5-.7 7-1 6-.8 10.4-1.6 17.5-3.1 35.7-7.4 73.6-27 101.9-52.5 25.9-23.4 45.8-51.5 58.4-82.7 4.5-11.2 8.6-23.5 10.3-30.8.6-2.8 1.3-5.9 1.5-7 .5-2 1.8-9.2 2.9-15 2-11.3 2.7-42.4 1.2-56.5-7.8-75-51.8-140.7-118.2-176.7-23.3-12.6-51.4-21.7-76.5-24.8-1.9-.3-5.5-.7-7.9-1-4.6-.6-31-1.6-31.2-1.2z"/></svg>