<svg style="display:none" version="1.1" xmlns="http://www.w3.org/2000/svg" xmlns:xlink="http://www.w3.org/1999/xlink">

    <symbol viewBox="0 0 24 28" id="icon-tiktok">
        <path d="M23.5 7.204c-1.643-.05-3.133-.843-4.255-1.904A6.22 6.22 0 0 1 17.34.719h-4.574V18.49c0 2.903-1.725 4.613-3.844 4.613a3.835 3.835 0 0 1-2.963-1.353 3.912 3.912 0 0 1-.873-3.162 3.89 3.89 0 0 1 1.841-2.706 3.798 3.798 0 0 1 1.584-.52 3.842 3.842 0 0 1 1.655.207v-4.694a5.537 5.537 0 0 0-1.242-.132 8.369 8.369 0 0 0-4.676 1.429 8.473 8.473 0 0 0-3.101 3.808 8.532 8.532 0 0 0 1.818 9.252 8.393 8.393 0 0 0 4.309 2.322 8.353 8.353 0 0 0 4.862-.482 8.437 8.437 0 0 0 3.778-3.127 8.546 8.546 0 0 0 1.42-4.716V9.664c1.772 1.237 3.891 1.82 6.151 1.86l.016-4.322v.002Z" fill="currentColor" />
    </symbol>

    <symbol viewBox="0 0 32 32" id="icon-instagram">
        <path d="M9.58.826c-1.649.078-2.775.342-3.76.728A7.581 7.581 0 0 0 3.08 3.346a7.598 7.598 0 0 0-1.783 2.748c-.382.987-.64 2.114-.713 3.764-.073 1.654-.09 2.181-.081 6.39.008 4.21.027 4.737.105 6.391.079 1.65.342 2.775.728 3.76a7.59 7.59 0 0 0 1.793 2.742 7.6 7.6 0 0 0 2.749 1.782c.985.381 2.113.64 3.763.713 1.653.073 2.18.089 6.389.08 4.21-.007 4.738-.026 6.39-.104 1.65-.079 2.775-.343 3.76-.728a7.598 7.598 0 0 0 2.743-1.793 7.597 7.597 0 0 0 1.782-2.749c.381-.985.641-2.113.713-3.762.072-1.654.089-2.182.08-6.39-.007-4.21-.026-4.737-.105-6.39-.078-1.65-.342-2.776-.727-3.76a7.605 7.605 0 0 0-1.793-2.743 7.586 7.586 0 0 0-2.749-1.782c-.986-.381-2.113-.641-3.763-.713-1.653-.073-2.18-.09-6.39-.081-4.208.008-4.736.026-6.39.105m.182 28.02c-1.512-.065-2.332-.317-2.88-.527a4.834 4.834 0 0 1-1.784-1.156 4.817 4.817 0 0 1-1.163-1.78c-.212-.546-.468-1.366-.538-2.877-.077-1.634-.095-2.124-.102-6.263-.008-4.138.007-4.628.078-6.263.065-1.51.318-2.332.527-2.878.28-.725.615-1.241 1.156-1.785a4.803 4.803 0 0 1 1.78-1.163c.547-.213 1.367-.467 2.877-.538 1.635-.078 2.125-.094 6.262-.102 4.139-.008 4.63.006 6.264.078 1.51.066 2.332.316 2.878.527.725.28 1.241.615 1.785 1.156.543.542.88 1.057 1.163 1.781.213.545.467 1.366.538 2.876.078 1.635.096 2.125.103 6.263.008 4.138-.007 4.628-.078 6.262-.066 1.512-.317 2.333-.528 2.88a4.818 4.818 0 0 1-1.156 1.785 4.815 4.815 0 0 1-1.78 1.162c-.546.213-1.367.467-2.876.539-1.635.077-2.125.094-6.264.102-4.137.008-4.627-.008-6.262-.079M22.397 7.933a1.86 1.86 0 1 0 3.72-.008 1.86 1.86 0 0 0-3.72.008M8.04 16.234a7.96 7.96 0 1 0 15.917-.033 7.96 7.96 0 0 0-15.917.033Zm2.792-.006a5.167 5.167 0 1 1 10.334-.018 5.167 5.167 0 0 1-10.334.019" fill="currentColor"/>
    </symbol>

    <symbol viewBox="0 0 32 32" id="icon-instagram">
        <path d="M9.58.826c-1.649.078-2.775.342-3.76.728A7.581 7.581 0 0 0 3.08 3.346a7.598 7.598 0 0 0-1.783 2.748c-.382.987-.64 2.114-.713 3.764-.073 1.654-.09 2.181-.081 6.39.008 4.21.027 4.737.105 6.391.079 1.65.342 2.775.728 3.76a7.59 7.59 0 0 0 1.793 2.742 7.6 7.6 0 0 0 2.749 1.782c.985.381 2.113.64 3.763.713 1.653.073 2.18.089 6.389.08 4.21-.007 4.738-.026 6.39-.104 1.65-.079 2.775-.343 3.76-.728a7.598 7.598 0 0 0 2.743-1.793 7.597 7.597 0 0 0 1.782-2.749c.381-.985.641-2.113.713-3.762.072-1.654.089-2.182.08-6.39-.007-4.21-.026-4.737-.105-6.39-.078-1.65-.342-2.776-.727-3.76a7.605 7.605 0 0 0-1.793-2.743 7.586 7.586 0 0 0-2.749-1.782c-.986-.381-2.113-.641-3.763-.713-1.653-.073-2.18-.09-6.39-.081-4.208.008-4.736.026-6.39.105m.182 28.02c-1.512-.065-2.332-.317-2.88-.527a4.834 4.834 0 0 1-1.784-1.156 4.817 4.817 0 0 1-1.163-1.78c-.212-.546-.468-1.366-.538-2.877-.077-1.634-.095-2.124-.102-6.263-.008-4.138.007-4.628.078-6.263.065-1.51.318-2.332.527-2.878.28-.725.615-1.241 1.156-1.785a4.803 4.803 0 0 1 1.78-1.163c.547-.213 1.367-.467 2.877-.538 1.635-.078 2.125-.094 6.262-.102 4.139-.008 4.63.006 6.264.078 1.51.066 2.332.316 2.878.527.725.28 1.241.615 1.785 1.156.543.542.88 1.057 1.163 1.781.213.545.467 1.366.538 2.876.078 1.635.096 2.125.103 6.263.008 4.138-.007 4.628-.078 6.262-.066 1.512-.317 2.333-.528 2.88a4.818 4.818 0 0 1-1.156 1.785 4.815 4.815 0 0 1-1.78 1.162c-.546.213-1.367.467-2.876.539-1.635.077-2.125.094-6.264.102-4.137.008-4.627-.008-6.262-.079M22.397 7.933a1.86 1.86 0 1 0 3.72-.008 1.86 1.86 0 0 0-3.72.008M8.04 16.234a7.96 7.96 0 1 0 15.917-.033 7.96 7.96 0 0 0-15.917.033Zm2.792-.006a5.167 5.167 0 1 1 10.334-.018 5.167 5.167 0 0 1-10.334.019" fill="currentColor"/>
    </symbol>

    <symbol viewBox="0 0 34 34" id="icon-facebook">
        <path d="M33.5 17.219c0-9.113-7.387-16.5-16.5-16.5S.5 8.106.5 17.219c0 7.738 5.328 14.23 12.514 16.014V22.261H9.612V17.22h3.402v-2.173c0-5.616 2.542-8.219 8.056-8.219 1.045 0 2.849.205 3.587.41v4.57c-.39-.04-1.066-.061-1.906-.061-2.706 0-3.751 1.025-3.751 3.69v1.783h5.39l-.927 5.042H19v11.337c8.17-.987 14.5-7.943 14.5-16.38Z" fill="currentColor"/>
    </symbol>

    <symbol viewBox="0 0 32 32" id="icon-linkedin">
        <path d="M15.994.728c4.4 0 8.799.013 13.198-.01 1.172-.004 2.122.834 2.279 1.867.017.114.027.23.027.344v26.585a2.206 2.206 0 0 1-2.105 2.198c-.077.002-.155.002-.232.002H2.82c-1.102 0-1.935-.591-2.226-1.592a2.499 2.499 0 0 1-.094-.654V2.972C.5 1.715 1.447.745 2.706.731 3.769.719 4.834.728 5.897.728H15.994Zm1.036 13.517c0-.53-.012-1.064.005-1.594.01-.27-.082-.345-.349-.342-1.256.012-2.513.005-3.77.005-.385 0-.387 0-.387.38 0 4.71 0 9.422-.007 14.132 0 .298.092.38.38.378 1.305-.012 2.61-.005 3.915-.005.388 0 .388 0 .388-.38 0-2.37-.008-4.74.004-7.11.003-.49.034-.986.122-1.468.179-1.003.641-1.813 1.711-2.08.322-.08.669-.094 1.003-.091 1.104.014 1.796.53 2.038 1.604.136.596.187 1.221.194 1.834.022 2.438.012 4.876.003 7.314 0 .29.09.385.382.382 1.305-.012 2.61-.012 3.916 0 .28.003.382-.067.38-.37-.012-2.826.021-5.651-.025-8.474a13.663 13.663 0 0 0-.35-2.804c-.378-1.645-1.335-2.847-3.015-3.32-.579-.162-1.194-.2-1.794-.274-1.017-.118-1.976.088-2.875.57-.765.412-1.367.998-1.874 1.713h.005ZM5.042 19.748c0 2.37.003 4.737-.004 7.107 0 .24.05.35.314.347 1.354-.01 2.707-.01 4.06 0 .245 0 .313-.092.313-.327-.005-4.747-.005-9.497 0-14.244 0-.261-.09-.325-.336-.322-1.335.01-2.669.012-4.003 0-.288-.002-.35.09-.35.363.009 2.36.004 4.718.004 7.079l.002-.003Zm2.335-9.424a2.676 2.676 0 0 0 2.697-2.67 2.695 2.695 0 0 0-2.69-2.714A2.678 2.678 0 0 0 4.69 7.644a2.668 2.668 0 0 0 2.686 2.68Z" fill="currentColor"/>
    </symbol>

    <symbol viewBox="0 0 12 8" id="icon-chevron-down">
        <path d="M5.82843 7.82843L0.171577 2.17157L1.58579 0.75736L5.82843 5L10.2426 0.585786L11.6569 2L5.82843 7.82843Z" fill="currentColor"/>
    </symbol>

    <symbol viewBox="0 0 19 11" id="icon-arrow-right">
        <path d="M11.364 9.56706L16.633 5.68303H-7.62939e-06V4.68303H16.389L11.355 0.791058L11.966 4.19617e-05L18.83 5.30497L11.957 10.372L11.364 9.56706Z" fill="currentColor"/>
    </symbol>

    <symbol viewBox="0 0 27 28" id="icon-x">
        <path d="m15.973 12.177 9.68-11.25h-2.294l-8.404 9.768L8.242.926H.5L10.65 15.7.5 27.498h2.294l8.875-10.317 7.089 10.317H26.5l-10.527-15.32Zm-3.141 3.652-1.029-1.47L3.62 2.652h3.523l6.604 9.446 1.029 1.471 8.584 12.28h-3.523l-7.005-10.02Z" transform="translate(-414.344 1069.757)" fill="currentColor"/>
    </symbol>

    <symbol viewBox="0 0 200 200" id="icon-email">
        <path d="M106.555 108.867L181.472 33.95C177.494 31.3715 172.855 29.9997 168.114 30H31.692C27.0955 30.013 22.5937 31.3071 18.692 33.737L93.832 108.867C95.5457 110.506 97.8254 111.42 100.197 111.42C102.568 111.42 104.847 110.506 106.561 108.867H106.555Z" fill="currentColor"/>
        <path d="M192.802 146.221V54.684C192.81 50.5439 191.765 46.4698 189.765 42.845L131.789 100.821L189.489 158.521C191.655 154.783 192.796 150.541 192.799 146.221H192.802Z" fill="currentColor"/>
        <path d="M168.114 170.909C172.678 170.909 177.15 169.627 181.021 167.209L123.199 109.387L115.156 117.43C111.183 121.396 105.798 123.623 100.185 123.623C94.5708 123.623 89.1864 121.396 85.213 117.43L76.861 109.078L18.753 167.208C22.6363 169.628 27.1205 170.91 31.696 170.908L168.114 170.909Z" fill="currentColor"/>
        <path d="M7 54.686V146.223C7.00233 150.528 8.13105 154.757 10.274 158.49L68.25 100.514L10.274 42.48C8.13597 46.1935 7.00722 50.401 7 54.686Z" fill="currentColor"/>
    </symbol>

    <symbol viewBox="0 0 200 200" id="icon-phone">
        <path d="M184.72 143.004L158.41 122.118C155.804 120.049 152.517 119.03 149.197 119.261C145.878 119.492 142.764 120.957 140.469 123.367L128.438 136.036C124.606 140.059 119.038 140.059 113.547 139.115C95.5123 135.965 66.2273 109.12 60.6403 86.2038C59.3243 80.7888 59.6683 75.1458 63.7193 71.3128L76.3883 59.2818C78.8012 56.9886 80.2676 53.8748 80.4988 50.554C80.73 47.2333 79.7091 43.9463 77.6373 41.3408L56.7513 15.0308C55.5843 13.5615 54.1197 12.3555 52.4537 11.4922C50.7877 10.6288 48.9579 10.1276 47.0845 10.0213C45.2111 9.91511 43.3364 10.2063 41.5835 10.8757C39.8305 11.5452 38.239 12.5778 36.9133 13.9058L20.8593 29.9598C7.70331 43.1158 7.90432 62.0758 14.0523 79.6268C32.1073 131.067 88.2373 177.436 120.162 185.737C138.17 190.427 156.673 192.086 169.829 178.93L185.883 162.876C187.209 161.549 188.24 159.957 188.908 158.205C189.576 156.452 189.867 154.578 189.761 152.705C189.655 150.832 189.154 149.003 188.292 147.337C187.43 145.671 186.226 144.206 184.758 143.038L184.72 143.004Z" fill="currentColor"/>
    </symbol>

    <symbol viewBox="0 0 200 200" id="icon-pin">
        <path d="M99.839 8.006C82.6495 8.02558 66.1696 14.8624 54.0143 27.0168C41.859 39.1711 35.0209 55.6505 35 72.84C35 107.608 94.858 184.686 97.4 187.95L99.835 191.069L102.27 187.951C104.816 184.686 164.67 107.607 164.67 72.839C164.65 55.6486 157.813 39.168 145.657 27.0125C133.502 14.8571 117.021 8.01959 99.831 8L99.839 8.006ZM99.839 45.057C105.335 45.057 110.707 46.6867 115.277 49.7401C119.847 52.7935 123.409 57.1334 125.512 62.211C127.615 67.2886 128.165 72.8758 127.093 78.2662C126.021 83.6565 123.374 88.6079 119.488 92.4941C115.602 96.3803 110.651 99.0269 105.26 100.099C99.8698 101.171 94.2826 100.621 89.205 98.5178C84.1274 96.4146 79.7875 92.8529 76.7341 88.2832C73.6807 83.7135 72.051 78.3409 72.051 72.845C72.0579 65.4768 74.9876 58.4123 80.1972 53.2017C85.4068 47.9912 92.4708 45.0602 99.839 45.052V45.057Z" fill="currentColor"/>
    </symbol>
</svg>