<?xml version="1.0" encoding="utf-8"?>
<!-- Generator: Adobe Illustrator 27.3.1, SVG Export Plug-In . SVG Version: 6.00 Build 0)  -->
<svg version="1.1" id="Group_855" xmlns="http://www.w3.org/2000/svg" xmlns:xlink="http://www.w3.org/1999/xlink" x="0px" y="0px"
	 viewBox="0 0 26 26" style="enable-background:new 0 0 26 26;"  width="26" height="26" xml:space="preserve">
<style type="text/css">
	.st0{fill-rule:evenodd;clip-rule:evenodd;}
</style>
<path id="Path_2" class="st0"  style="fill:#fff" d="M8.2,24.3c8.3,0.1,15.1-6.6,15.2-14.9c0-0.1,0-0.2,0-0.3V8.4c1-0.8,1.9-1.7,2.6-2.7
	c-1,0.4-2,0.7-3,0.9c1.1-0.7,1.9-1.7,2.3-2.9c-1,0.6-2.2,1-3.3,1.3c-1-1.1-2.4-1.7-3.9-1.7c-2.9,0-5.3,2.4-5.3,5.3
	c0,0.4,0,0.8,0.1,1.2c-4.3-0.2-8.3-2.3-11-5.6C1.4,4.9,1.2,5.9,1.2,6.8c0,1.8,0.9,3.4,2.3,4.5c-0.9,0-1.7-0.3-2.5-0.7l0,0
	c0,2.6,1.8,4.7,4.3,5.2c-0.5,0.1-1,0.2-1.4,0.1c-0.3,0-0.7,0-1-0.1c0.7,2.2,2.7,3.7,5.1,3.8C6,21,3.7,21.8,1.3,21.8
	c-0.4,0-0.9,0-1.3-0.1C2.4,23.4,5.3,24.3,8.2,24.3"/>
</svg>
