<?xml version="1.0" encoding="utf-8"?>
<!-- Generator: Adobe Illustrator 27.3.1, SVG Export Plug-In . SVG Version: 6.00 Build 0)  -->
<svg version="1.1" id="linkedin-logo" xmlns="http://www.w3.org/2000/svg" xmlns:xlink="http://www.w3.org/1999/xlink" x="0px"
	 y="0px" viewBox="0 0 25 26" style="enable-background:new 0 0 25 26;"  width="25" height="26" xml:space="preserve">
<path id="linkedin-logo-2" style="fill:#fff" d="M23.4,0H1.6C0.9,0,0.3,0.7,0.3,1.4v23.1c0,0.8,0.6,1.4,1.3,1.4h21.7c0.8,0,1.4-0.7,1.3-1.4V1.4
	C24.7,0.7,24.1,0,23.4,0z M7.8,21.8H4.1V9.9h3.7V21.8z M5.9,8.3c-1.1,0.1-2-0.8-2.1-1.9c0-0.1,0-0.1,0-0.2c0-1.1,0.8-2,1.9-2.1
	c0.1,0,0.1,0,0.2,0C7,4.1,8,5,8,6.1c0,0.1,0,0.1,0,0.2c0,1.1-0.8,2-1.9,2.1C6,8.3,6,8.3,5.9,8.3z M21.2,21.8h-3.7v-6.4
	c0-1.6-0.5-2.7-1.9-2.7c-0.9,0-1.6,0.6-1.9,1.5c-0.1,0.3-0.1,0.6-0.1,1v6.7H9.8V9.9h3.7v1.7c0.6-1.2,1.9-2,3.3-2
	c2.4,0,4.3,1.7,4.3,5.4L21.2,21.8L21.2,21.8z"/>
</svg>
