<svg xmlns="http://www.w3.org/2000/svg" xmlns:xlink="http://www.w3.org/1999/xlink" width="119.424" height="112.81" viewBox="0 0 119.424 112.81">
  <defs>
    <clipPath id="clip-path">
      <rect id="Rectangle_41" data-name="Rectangle 41" width="119.424" height="112.81" fill="none"/>
    </clipPath>
  </defs>
  <g id="Group_58" data-name="Group 58" clip-path="url(#clip-path)">
    <path id="Path_53" data-name="Path 53" d="M282.4.218A.218.218,0,0,1,282.615,0h30.9c2.5,0,7.153.35,7.153.35a41.171,41.171,0,0,1-5.39,81.988l-1.763,0,.068,30.469H275.313l-.069-30.469s1.011,0,1.763,0A41.142,41.142,0,0,0,282.586.433.217.217,0,0,1,282.4.218Zm2.926,40.954a9.71,9.71,0,0,0-9.7-9.714h-.38V50.886h.38a9.71,9.71,0,0,0,9.7-9.714" transform="translate(-237.023 0)"/>
  </g>
</svg>
