<?xml version="1.0" encoding="utf-8"?>
<!-- Generator: Adobe Illustrator 27.3.1, SVG Export Plug-In . SVG Version: 6.00 Build 0)  -->
<svg version="1.1" id="Layer_1" xmlns="http://www.w3.org/2000/svg" xmlns:xlink="http://www.w3.org/1999/xlink" x="0px" y="0px"
	 viewBox="0 0 28 25" style="enable-background:new 0 0 28 25;"  width="28" height="25" xml:space="preserve">
<path id="tiktok-share-icon-black-seeklogo.com" style="fill:#fff" d="M24.4,0H3.6C1.9-0.1,0.5,1.3,0.4,3v19c0.1,1.7,1.5,3,3.2,3h20.8
	c1.7,0.1,3.2-1.3,3.2-3V3C27.5,1.3,26.1-0.1,24.4,0 M21.8,10.9c-0.1,0-0.3,0-0.4,0c-1.6,0-3.1-0.7-4.1-2v6.9
	c-0.1,2.9-2.6,5.2-5.5,5.1c-2.9,0.1-5.4-2.1-5.5-5.1c0.1-2.9,2.6-5.2,5.5-5.1c0.1,0,0.2,0,0.3,0v2.5c-1-0.1-2,0.3-2.7,1.1
	c-0.6,0.8-0.7,1.8-0.2,2.7c0.5,0.9,1.5,1.4,2.5,1.4c1.5,0.1,2.8-1.1,2.9-2.6l0-11.7h2.6c0.3,2.2,2.2,3.9,4.5,4L21.8,10.9"/>
</svg>
